/* XPM */
static char * collectible_dead_1_128_xpm[] = {
"128 128 39 1",
" 	c None",
".	c #252538",
"+	c #020202",
"@	c #080808",
"#	c #030303",
"$	c #0E0E0E",
"%	c #ADADAD",
"&	c #D7D7D7",
"*	c #B0B0B0",
"=	c #A7A7A7",
"-	c #E7E7E7",
";	c #050505",
">	c #D2D2D2",
",	c #ABABAB",
"'	c #CCCCCC",
")	c #E3E3E3",
"!	c #B2B2B2",
"~	c #CDCDCD",
"{	c #060606",
"]	c #AEAEAE",
"^	c #D3D3D3",
"/	c #A8A8A8",
"(	c #D5D5D5",
"_	c #AFAFAF",
":	c #D1D1D1",
"<	c #CACACA",
"[	c #E6E6E6",
"}	c #A9A9A9",
"|	c #D0D0D0",
"1	c #AAAAAA",
"2	c #E1E1E1",
"3	c #A6A6A6",
"4	c #E4E4E4",
"5	c #010101",
"6	c #040404",
"7	c #CECECE",
"8	c #D4D4D4",
"9	c #ACACAC",
"0	c #070707",
"                                                                                                                                ",
"                                                                                                                                ",
"                                                                                                                                ",
"                                                                                                                                ",
"                                                                                                                                ",
"                                                                                                                                ",
"                                                                                                                                ",
"                                                                                                                                ",
"                                                                                                                                ",
"                                                                                                                                ",
"                                                                                                                                ",
"                                                                                                                                ",
"                                                                                                                                ",
"                                                                                                                                ",
"                                                                                                                                ",
"                                                                                                                                ",
"                                                                                                                                ",
"                                                                                                                                ",
"                                                                                                                                ",
"                                                                                                                                ",
"                                                                                                                                ",
"                                                                                                                                ",
"                                                                                                                                ",
"                                                                                                                                ",
"                                                                                                                                ",
"                                                                                                                                ",
"                                                                                                                                ",
"                                                                                                                                ",
"                                                                                                                                ",
"                                                                                                                                ",
"                                                                                                                                ",
"                                                                                                                                ",
"                                                                                                                                ",
"                                                                                                                                ",
"                                                                                                                                ",
"                                                                                                                                ",
"                                                                                                                                ",
"                                                                                                                                ",
"                                                                                                                                ",
"                                                                                                                                ",
"                                                                                                                                ",
"                                                                                                                                ",
"                                                                                                                                ",
"                                                                                                                                ",
"                                                                                                                                ",
"                                                                                                                                ",
"                                                                                                                                ",
"                                                                                                                                ",
"                                                            ....................                                                ",
"                                                            ....................                                                ",
"                                                            ....................                                                ",
"                                                            ....................                                                ",
"                                                ............%%%%&&&&****====----....                                            ",
"                                                ............%%%%&&&&****====----....                                            ",
"                                                ............%%%%&&&&****====----....                                            ",
"                                                ............%%%%&&&&****====----....                                            ",
"                                        ........>>>>,,,,'''',,,,))))!!!!~~~~%%%%''''....                                        ",
"                                        ........>>>>,,,,'''',,,,))))!!!!~~~~%%%%''''....                                        ",
"                                        ........>>>>,,,,'''',,,,))))!!!!~~~~%%%%''''....                                        ",
"                                        ........>>>>,,,,'''',,,,))))!!!!~~~~%%%%''''....                                        ",
"                                    ....----]]]]^^^^%%%%^^^^,,,,----////((((____::::....                                        ",
"                                    ....----]]]]^^^^%%%%^^^^,,,,----////((((____::::....                                        ",
"                                    ....----]]]]^^^^%%%%^^^^,,,,----////((((____::::....                                        ",
"                                    ....----]]]]^^^^%%%%^^^^,,,,----////((((____::::....                                        ",
"                                ....,,,,((((,,,,<<<<[[[[,,,,%%%%((((>>>>}}}}||||1111....                                        ",
"                                ....,,,,((((,,,,<<<<[[[[,,,,%%%%((((>>>>}}}}||||1111....                                        ",
"                                ....,,,,((((,,,,<<<<[[[[,,,,%%%%((((>>>>}}}}||||1111....                                        ",
"                                ....,,,,((((,,,,<<<<[[[[,,,,%%%%((((>>>>}}}}||||1111....                                        ",
"                                ....[[[[%%%%>>>>]]]]2222]]]]^^^^3333||||]]]]>>>>4444....                                        ",
"                                ....[[[[%%%%>>>>]]]]2222]]]]^^^^3333||||]]]]>>>>4444....                                        ",
"                                ....[[[[%%%%>>>>]]]]2222]]]]^^^^3333||||]]]]>>>>4444....                                        ",
"                                ....[[[[%%%%>>>>]]]]2222]]]]^^^^3333||||]]]]>>>>4444....                                        ",
"                                ....||||]]]]^^^^11117777,,,,88889999||||[[[[]]]]....                                            ",
"                                ....||||]]]]^^^^11117777,,,,88889999||||[[[[]]]]....                                            ",
"                                ....||||]]]]^^^^11117777,,,,88889999||||[[[[]]]]....                                            ",
"                                ....||||]]]]^^^^11117777,,,,88889999||||[[[[]]]]....                                            ",
"                                    ............................................                                                ",
"                                    ............................................                                                ",
"                                    ............................................                                                ",
"                                    ............................................                                                ",
"                                                                                                                                ",
"                                                                                                                                ",
"                                                                                                                                ",
"                                                                                                                                ",
"                                                                                                                                ",
"                                                                                                                                ",
"                                                                                                                                ",
"                                                                                                                                ",
"                                                                                                                                ",
"                                                                                                                                ",
"                                                                                                                                ",
"                                                                                                                                ",
"                                                                                                                                ",
"                                                                                                                                ",
"                                                                                                                                ",
"                                                                                                                                ",
"                                                                                                                                ",
"                                                                                                                                ",
"                                                                                                                                ",
"                                                                                                                                ",
"                                                                                                                                ",
"                                                                                                                                ",
"                                                                                                                                ",
"                                                                                                                                ",
"                                                                                                                                ",
"                                                                                                                                ",
"                                                                                                                                ",
"                                                                                                                                ",
"                                                                                                                                ",
"                                                                                                                                ",
"                                                                                                                                ",
"                                                                                                                                ",
"                                                                                                                                ",
"                                                                                                                                ",
"                                                                                                                                ",
"                                                                                                                                ",
"                                                                                                                                ",
"                                                                                                                                ",
"                                                                                                                                ",
"                                                                                                                                ",
"                                                                                                                                ",
"                                                                                                                                ",
"                                                                                                                                ",
"                                                                                                                                ",
"                                                                                                                                ",
"                                                                                                                                ",
"                                                                                                                                ",
"                                                                                                                                "};
