/* XPM */
static char * collectible_2_128_xpm[] = {
"128 128 13 1",
" 	c None",
".	c #0E0601",
"+	c #190B01",
"@	c #271203",
"#	c #E3BE9B",
"$	c #CD8D6D",
"%	c #2A1206",
"&	c #EEC7C4",
"*	c #380703",
"=	c #87150B",
"-	c #A8291E",
";	c #431F06",
">	c #0F0701",
"                                                                                                                                ",
"                                                                                                                                ",
"                                                                                                                                ",
"                                                                                                                                ",
"                                                                                                                                ",
"                                                                                                                                ",
"                                                                                                                                ",
"                                                                                                                                ",
"                                                                                                                                ",
"                                                                                                                                ",
"                                                                                                                                ",
"                                                                                                                                ",
"                                                                                                                                ",
"                                                                                                                                ",
"                                                                                                                                ",
"                                                                                                                                ",
"                                                                                                                                ",
"                                                                                                                                ",
"                                                                                                                                ",
"                                                                                                                                ",
"                                                                                                                                ",
"                                                                                                                                ",
"                                                                                                                                ",
"                                                                                                                                ",
"                                                                                                                                ",
"                                                                                                                                ",
"                                                                                                                                ",
"                                                                                                                                ",
"                                                                                                                                ",
"                                                                                                                                ",
"                                                                                                                                ",
"                                                                                                                                ",
"                                                                                                                                ",
"                                                                                                                                ",
"                                                                                                                                ",
"                                                                                                                                ",
"                                                        ........................                                                ",
"                                                        ........................                                                ",
"                                                        ........................                                                ",
"                                                        ........................                                                ",
"                                                    ....++++@@@@@@@@@@@@@@@@@@@@....                                            ",
"                                                    ....++++@@@@@@@@@@@@@@@@@@@@....                                            ",
"                                                    ....++++@@@@@@@@@@@@@@@@@@@@....                                            ",
"                                                    ....++++@@@@@@@@@@@@@@@@@@@@....                                            ",
"                                                ....++++++++................@@@@....                                            ",
"                                                ....++++++++................@@@@....                                            ",
"                                                ....++++++++................@@@@....                                            ",
"                                                ....++++++++................@@@@....                                            ",
"                                                ....++++....################........                                            ",
"                                                ....++++....################........                                            ",
"                                                ....++++....################........                                            ",
"                                                ....++++....################........                                            ",
"                                                ........$$$$####################%%%%                                            ",
"                                                ........$$$$####################%%%%                                            ",
"                                                ........$$$$####################%%%%                                            ",
"                                                ........$$$$####################%%%%                                            ",
"                                                %%%%$$$$$$$$....########....####%%%%                                            ",
"                                                %%%%$$$$$$$$....########....####%%%%                                            ",
"                                                %%%%$$$$$$$$....########....####%%%%                                            ",
"                                                %%%%$$$$$$$$....########....####%%%%                                            ",
"                                                    %%%%$$$$$$$$$$$$############%%%%                                            ",
"                                                    %%%%$$$$$$$$$$$$############%%%%                                            ",
"                                                    %%%%$$$$$$$$$$$$############%%%%                                            ",
"                                                    %%%%$$$$$$$$$$$$############%%%%                                            ",
"                                            %%%%%%%%%%%%%%%%%%%%%%%%%%%%%%%%%%%%                                                ",
"                                            %%%%%%%%%%%%%%%%%%%%%%%%%%%%%%%%%%%%                                                ",
"                                            %%%%%%%%%%%%%%%%%%%%%%%%%%%%%%%%%%%%                                                ",
"                                            %%%%%%%%%%%%%%%%%%%%%%%%%%%%%%%%%%%%                                                ",
"                                        %%%%########%%%%&&&&&&&&&&&&&&&&****%%%%                                                ",
"                                        %%%%########%%%%&&&&&&&&&&&&&&&&****%%%%                                                ",
"                                        %%%%########%%%%&&&&&&&&&&&&&&&&****%%%%                                                ",
"                                        %%%%########%%%%&&&&&&&&&&&&&&&&****%%%%                                                ",
"                                        %%%%$$$$$$$$%%%%====--------****$$$$%%%%                                                ",
"                                        %%%%$$$$$$$$%%%%====--------****$$$$%%%%                                                ",
"                                        %%%%$$$$$$$$%%%%====--------****$$$$%%%%                                                ",
"                                        %%%%$$$$$$$$%%%%====--------****$$$$%%%%                                                ",
"                                            %%%%%%%%********************%%%%                                                    ",
"                                            %%%%%%%%********************%%%%                                                    ",
"                                            %%%%%%%%********************%%%%                                                    ",
"                                            %%%%%%%%********************%%%%                                                    ",
"                                            ++++;;;;++++    ++++;;;;>>>>                                                        ",
"                                            ++++;;;;++++    ++++;;;;>>>>                                                        ",
"                                            ++++;;;;++++    ++++;;;;>>>>                                                        ",
"                                            ++++;;;;++++    ++++;;;;>>>>                                                        ",
"                                            ++++++++        ++++++++                                                            ",
"                                            ++++++++        ++++++++                                                            ",
"                                            ++++++++        ++++++++                                                            ",
"                                            ++++++++        ++++++++                                                            ",
"                                                                                                                                ",
"                                                                                                                                ",
"                                                                                                                                ",
"                                                                                                                                ",
"                                                                                                                                ",
"                                                                                                                                ",
"                                                                                                                                ",
"                                                                                                                                ",
"                                                                                                                                ",
"                                                                                                                                ",
"                                                                                                                                ",
"                                                                                                                                ",
"                                                                                                                                ",
"                                                                                                                                ",
"                                                                                                                                ",
"                                                                                                                                ",
"                                                                                                                                ",
"                                                                                                                                ",
"                                                                                                                                ",
"                                                                                                                                ",
"                                                                                                                                ",
"                                                                                                                                ",
"                                                                                                                                ",
"                                                                                                                                ",
"                                                                                                                                ",
"                                                                                                                                ",
"                                                                                                                                ",
"                                                                                                                                ",
"                                                                                                                                ",
"                                                                                                                                ",
"                                                                                                                                ",
"                                                                                                                                ",
"                                                                                                                                ",
"                                                                                                                                ",
"                                                                                                                                ",
"                                                                                                                                ",
"                                                                                                                                ",
"                                                                                                                                ",
"                                                                                                                                ",
"                                                                                                                                "};
