/* XPM */
static char * collectible_dead_1_128_xpm[] = {
"128 128 50 1",
" 	c None",
".	c #232335",
"+	c #242437",
"@	c #252538",
"#	c #AEAEAF",
"$	c #929293",
"%	c #CDCDCE",
"&	c #D4D4D5",
"*	c #BBBBBB",
"=	c #686767",
"-	c #9D9DA0",
";	c #818186",
">	c #A4A4A7",
",	c #B6B6B7",
"'	c #959599",
")	c #D7D7D8",
"!	c #F3F3F3",
"~	c #C4C4C4",
"{	c #AAAAAB",
"]	c #898989",
"^	c #9C9C9F",
"/	c #636363",
"(	c #A3A3A5",
"_	c #B3B3B5",
":	c #FAFAFA",
"<	c #FFFFFF",
"[	c #868585",
"}	c #808080",
"|	c #8C8B8B",
"1	c #7D7D7D",
"2	c #C1C1C2",
"3	c #BCBCBD",
"4	c #DFDFE0",
"5	c #99999D",
"6	c #212133",
"7	c #555555",
"8	c #807F7F",
"9	c #5E5D5D",
"0	c #A09F9F",
"a	c #6F6F70",
"b	c #979797",
"c	c #98989B",
"d	c #929294",
"e	c #646363",
"f	c #676767",
"g	c #B7B7B8",
"h	c #8D8D8D",
"i	c #AFAFB0",
"j	c #8B8B8D",
"k	c #2E2E3E",
"                                                                                                                                ",
"                                                                                                                                ",
"                                                                                                                                ",
"                                                                                                                                ",
"                                                                                                                                ",
"                                                                                                                                ",
"                                                                                                                                ",
"                                                                                                                                ",
"                                                                                                                                ",
"                                                                                                                                ",
"                                                                                                                                ",
"                                                                                                                                ",
"                                                                                                                                ",
"                                                                                                                                ",
"                                                                                                                                ",
"                                                                                                                                ",
"                                                                                                                                ",
"                                                                                                                                ",
"                                                                                                                                ",
"                                                                                                                                ",
"                                                                                                                                ",
"                                                                                                                                ",
"                                                                                                                                ",
"                                                                                                                                ",
"                                                                                                                                ",
"                                                                                                                                ",
"                                                                                                                                ",
"                                                                                                                                ",
"                                                                                                                                ",
"                                                                                                                                ",
"                                                                                                                                ",
"                                                                                                                                ",
"                                                                                                                                ",
"                                                                                                                                ",
"                                                                                                                                ",
"                                                                                                                                ",
"                                                                                                                                ",
"                                                                                                                                ",
"                                                                                                                                ",
"                                                                                                                                ",
"                                                                                                                                ",
"                                                                                                                                ",
"                                                                                                                                ",
"                                                                                                                                ",
"                                                                                                                                ",
"                                                                                                                                ",
"                                                                                                                                ",
"                                                                                                                                ",
"                                                        ....++++....++++@@@@........                                            ",
"                                                        ....++++....++++@@@@........                                            ",
"                                                        ....++++....++++@@@@........                                            ",
"                                                        ....++++....++++@@@@........                                            ",
"                                            ................####$$$$%%%%&&&&****$$$$....                                        ",
"                                            ................####$$$$%%%%&&&&****$$$$....                                        ",
"                                            ................####$$$$%%%%&&&&****$$$$....                                        ",
"                                            ................####$$$$%%%%&&&&****$$$$....                                        ",
"                                    ....@@@@====----;;;;>>>>,,,,''''))))!!!!~~~~{{{{''''....                                    ",
"                                    ....@@@@====----;;;;>>>>,,,,''''))))!!!!~~~~{{{{''''....                                    ",
"                                    ....@@@@====----;;;;>>>>,,,,''''))))!!!!~~~~{{{{''''....                                    ",
"                                    ....@@@@====----;;;;>>>>,,,,''''))))!!!!~~~~{{{{''''....                                    ",
"                                ....]]]]^^^^////((((]]]]____,,,,^^^^::::<<<<::::,,,,[[[[....                                    ",
"                                ....]]]]^^^^////((((]]]]____,,,,^^^^::::<<<<::::,,,,[[[[....                                    ",
"                                ....]]]]^^^^////((((]]]]____,,,,^^^^::::<<<<::::,,,,[[[[....                                    ",
"                                ....]]]]^^^^////((((]]]]____,,,,^^^^::::<<<<::::,,,,[[[[....                                    ",
"                            ....}}}}||||[[[[////(((({{{{{{{{111122223333!!!!4444****5555....                                    ",
"                            ....}}}}||||[[[[////(((({{{{{{{{111122223333!!!!4444****5555....                                    ",
"                            ....}}}}||||[[[[////(((({{{{{{{{111122223333!!!!4444****5555....                                    ",
"                            ....}}}}||||[[[[////(((({{{{{{{{111122223333!!!!4444****5555....                                    ",
"                            66667777888899990000aaaa5555bbbb****3333cccc%%%%2222dddd''''....                                    ",
"                            66667777888899990000aaaa5555bbbb****3333cccc%%%%2222dddd''''....                                    ",
"                            66667777888899990000aaaa5555bbbb****3333cccc%%%%2222dddd''''....                                    ",
"                            66667777888899990000aaaa5555bbbb****3333cccc%%%%2222dddd''''....                                    ",
"                            6666////1111eeee^^^^ffffcccc]]]]gggg2222hhhhiiiijjjjdddd....                                        ",
"                            6666////1111eeee^^^^ffffcccc]]]]gggg2222hhhhiiiijjjjdddd....                                        ",
"                            6666////1111eeee^^^^ffffcccc]]]]gggg2222hhhhiiiijjjjdddd....                                        ",
"                            6666////1111eeee^^^^ffffcccc]]]]gggg2222hhhhiiiijjjjdddd....                                        ",
"                                ................kkkk++++....++++....................                                            ",
"                                ................kkkk++++....++++....................                                            ",
"                                ................kkkk++++....++++....................                                            ",
"                                ................kkkk++++....++++....................                                            ",
"                                                                                                                                ",
"                                                                                                                                ",
"                                                                                                                                ",
"                                                                                                                                ",
"                                                                                                                                ",
"                                                                                                                                ",
"                                                                                                                                ",
"                                                                                                                                ",
"                                                                                                                                ",
"                                                                                                                                ",
"                                                                                                                                ",
"                                                                                                                                ",
"                                                                                                                                ",
"                                                                                                                                ",
"                                                                                                                                ",
"                                                                                                                                ",
"                                                                                                                                ",
"                                                                                                                                ",
"                                                                                                                                ",
"                                                                                                                                ",
"                                                                                                                                ",
"                                                                                                                                ",
"                                                                                                                                ",
"                                                                                                                                ",
"                                                                                                                                ",
"                                                                                                                                ",
"                                                                                                                                ",
"                                                                                                                                ",
"                                                                                                                                ",
"                                                                                                                                ",
"                                                                                                                                ",
"                                                                                                                                ",
"                                                                                                                                ",
"                                                                                                                                ",
"                                                                                                                                ",
"                                                                                                                                ",
"                                                                                                                                ",
"                                                                                                                                ",
"                                                                                                                                ",
"                                                                                                                                ",
"                                                                                                                                ",
"                                                                                                                                ",
"                                                                                                                                ",
"                                                                                                                                ",
"                                                                                                                                ",
"                                                                                                                                ",
"                                                                                                                                ",
"                                                                                                                                "};
