/* XPM */
static char * collectible_4_128_xpm[] = {
"128 128 8 1",
" 	c None",
".	c #0E0601",
"+	c #190B01",
"@	c #271203",
"#	c #E3BE9B",
"$	c #380703",
"%	c #CD8D6D",
"&	c #2A1206",
"                                                                                                                                ",
"                                                                                                                                ",
"                                                                                                                                ",
"                                                                                                                                ",
"                                                                                                                                ",
"                                                                                                                                ",
"                                                                                                                                ",
"                                                                                                                                ",
"                                                                                                                                ",
"                                                                                                                                ",
"                                                                                                                                ",
"                                                                                                                                ",
"                                                                                                                                ",
"                                                                                                                                ",
"                                                                                                                                ",
"                                                                                                                                ",
"                                                                                                                                ",
"                                                                                                                                ",
"                                                                                                                                ",
"                                                                                                                                ",
"                                                                                                                                ",
"                                                                                                                                ",
"                                                                                                                                ",
"                                                                                                                                ",
"                                                                                                                                ",
"                                                                                                                                ",
"                                                                                                                                ",
"                                                                                                                                ",
"                                                                                                                                ",
"                                                                                                                                ",
"                                                                                                                                ",
"                                                                                                                                ",
"                                                                                                                                ",
"                                                                                                                                ",
"                                                                                                                                ",
"                                                                                                                                ",
"                                                                                                                                ",
"                                                                                                                                ",
"                                                                                                                                ",
"                                                                                                                                ",
"                                                                                                                                ",
"                                                                                                                                ",
"                                                                                                                                ",
"                                                                                                                                ",
"                                                                                                                                ",
"                                                                                                                                ",
"                                                                                                                                ",
"                                                                                                                                ",
"                                                                                                                                ",
"                                                                                                                                ",
"                                                                                                                                ",
"                                                                                                                                ",
"                                                                                                                                ",
"                                                                                                                                ",
"                                                                                                                                ",
"                                                                                                                                ",
"                                                            ........................                                            ",
"                                                            ........................                                            ",
"                                                            ........................                                            ",
"                                                            ........................                                            ",
"                                                        ....++++@@@@@@@@@@@@@@@@@@@@....                                        ",
"                                                        ....++++@@@@@@@@@@@@@@@@@@@@....                                        ",
"                                                        ....++++@@@@@@@@@@@@@@@@@@@@....                                        ",
"                                                        ....++++@@@@@@@@@@@@@@@@@@@@....                                        ",
"                                                    ....++++++++................@@@@....                                        ",
"                                                    ....++++++++................@@@@....                                        ",
"                                                    ....++++++++................@@@@....                                        ",
"                                                    ....++++++++................@@@@....                                        ",
"                                                    ....++++....################........                                        ",
"                                                    ....++++....################........                                        ",
"                                                    ....++++....################........                                        ",
"                                                    ....++++....################........                                        ",
"                                                $$$$........%%%%####################&&&&                                        ",
"                                                $$$$........%%%%####################&&&&                                        ",
"                                                $$$$........%%%%####################&&&&                                        ",
"                                                $$$$........%%%%####################&&&&                                        ",
"                                            &&&&$$$$&&&&%%%%........########........&&&&                                        ",
"                                            &&&&$$$$&&&&%%%%........########........&&&&                                        ",
"                                            &&&&$$$$&&&&%%%%........########........&&&&                                        ",
"                                            &&&&$$$$&&&&%%%%........########........&&&&                                        ",
"                                        ++++&&&&%%%%$$$$&&&&%%%%%%%%%%%%############&&&&                                        ",
"                                        ++++&&&&%%%%$$$$&&&&%%%%%%%%%%%%############&&&&                                        ",
"                                        ++++&&&&%%%%$$$$&&&&%%%%%%%%%%%%############&&&&                                        ",
"                                        ++++&&&&%%%%$$$$&&&&%%%%%%%%%%%%############&&&&                                        ",
"                                        ++++++++&&&&$$$$$$$$&&&&&&&&&&&&&&&&&&&&&&&&                                            ",
"                                        ++++++++&&&&$$$$$$$$&&&&&&&&&&&&&&&&&&&&&&&&                                            ",
"                                        ++++++++&&&&$$$$$$$$&&&&&&&&&&&&&&&&&&&&&&&&                                            ",
"                                        ++++++++&&&&$$$$$$$$&&&&&&&&&&&&&&&&&&&&&&&&                                            ",
"                                                                                                                                ",
"                                                                                                                                ",
"                                                                                                                                ",
"                                                                                                                                ",
"                                                                                                                                ",
"                                                                                                                                ",
"                                                                                                                                ",
"                                                                                                                                ",
"                                                                                                                                ",
"                                                                                                                                ",
"                                                                                                                                ",
"                                                                                                                                ",
"                                                                                                                                ",
"                                                                                                                                ",
"                                                                                                                                ",
"                                                                                                                                ",
"                                                                                                                                ",
"                                                                                                                                ",
"                                                                                                                                ",
"                                                                                                                                ",
"                                                                                                                                ",
"                                                                                                                                ",
"                                                                                                                                ",
"                                                                                                                                ",
"                                                                                                                                ",
"                                                                                                                                ",
"                                                                                                                                ",
"                                                                                                                                ",
"                                                                                                                                ",
"                                                                                                                                ",
"                                                                                                                                ",
"                                                                                                                                ",
"                                                                                                                                ",
"                                                                                                                                ",
"                                                                                                                                ",
"                                                                                                                                ",
"                                                                                                                                ",
"                                                                                                                                ",
"                                                                                                                                ",
"                                                                                                                                "};
