/* XPM */
static char * exit_6_128_xpm[] = {
"128 128 9 1",
" 	c None",
".	c #46413D",
"+	c #817973",
"@	c #A39C97",
"#	c #7E4C1C",
"$	c #704012",
"%	c #462711",
"&	c #24201D",
"*	c #171724",
"                                                                                                                                ",
"                                                                                                                                ",
"                                                                                                                                ",
"                                                                                                                                ",
"                                                                                                                                ",
"                                                                                                                                ",
"                                                                                                                                ",
"                                                                                                                                ",
"                                                                                                                                ",
"                                                                                                                                ",
"                                                                                                                                ",
"                                                                                                                                ",
"                                                                                                                                ",
"                                                                                                                                ",
"                                                                                                                                ",
"                                                                                                                                ",
"                                                                                                                                ",
"                                                                                                                                ",
"                                                                                                                                ",
"                                                                                                                                ",
"                                        ................................................                                        ",
"                                        ................................................                                        ",
"                                        ................................................                                        ",
"                                        ................................................                                        ",
"                                    ....++++@@@@++++@@@@@@@@@@@@@@@@++++@@@@++++++++@@@@....                                    ",
"                                    ....++++@@@@++++@@@@@@@@@@@@@@@@++++@@@@++++++++@@@@....                                    ",
"                                    ....++++@@@@++++@@@@@@@@@@@@@@@@++++@@@@++++++++@@@@....                                    ",
"                                    ....++++@@@@++++@@@@@@@@@@@@@@@@++++@@@@++++++++@@@@....                                    ",
"                                ....++++++++........................................++++@@@@....                                ",
"                                ....++++++++........................................++++@@@@....                                ",
"                                ....++++++++........................................++++@@@@....                                ",
"                                ....++++++++........................................++++@@@@....                                ",
"                                ....@@@@....####$$$$%%%%$$$$$$$$$$$$$$$$%%%%########....++++....                                ",
"                                ....@@@@....####$$$$%%%%$$$$$$$$$$$$$$$$%%%%########....++++....                                ",
"                                ....@@@@....####$$$$%%%%$$$$$$$$$$$$$$$$%%%%########....++++....                                ",
"                                ....@@@@....####$$$$%%%%$$$$$$$$$$$$$$$$%%%%########....++++....                                ",
"                                ....++++....########%%%%############$$$$%%%%########....++++....                                ",
"                                ....++++....########%%%%############$$$$%%%%########....++++....                                ",
"                                ....++++....########%%%%############$$$$%%%%########....++++....                                ",
"                                ....++++....########%%%%############$$$$%%%%########....++++....                                ",
"                                ....@@@@....$$$$####%%%%########$$$$####%%%%$$$$####....@@@@....                                ",
"                                ....@@@@....$$$$####%%%%########$$$$####%%%%$$$$####....@@@@....                                ",
"                                ....@@@@....$$$$####%%%%########$$$$####%%%%$$$$####....@@@@....                                ",
"                                ....@@@@....$$$$####%%%%########$$$$####%%%%$$$$####....@@@@....                                ",
"                                ....@@@@....$$$$####%%%%################%%%%########....@@@@....                                ",
"                                ....@@@@....$$$$####%%%%################%%%%########....@@@@....                                ",
"                                ....@@@@....$$$$####%%%%################%%%%########....@@@@....                                ",
"                                ....@@@@....$$$$####%%%%################%%%%########....@@@@....                                ",
"                                ....@@@@....$$$$####%%%%$$$$############%%%%$$$$####....@@@@....                                ",
"                                ....@@@@....$$$$####%%%%$$$$############%%%%$$$$####....@@@@....                                ",
"                                ....@@@@....$$$$####%%%%$$$$############%%%%$$$$####....@@@@....                                ",
"                                ....@@@@....$$$$####%%%%$$$$############%%%%$$$$####....@@@@....                                ",
"                                ....@@@@....$$$$####%%%%$$$$########$$$$%%%%$$$$####....@@@@....                                ",
"                                ....@@@@....$$$$####%%%%$$$$########$$$$%%%%$$$$####....@@@@....                                ",
"                                ....@@@@....$$$$####%%%%$$$$########$$$$%%%%$$$$####....@@@@....                                ",
"                                ....@@@@....$$$$####%%%%$$$$########$$$$%%%%$$$$####....@@@@....                                ",
"                                ....@@@@....####$$$$%%%%########$$$$$$$$%%%%$$$$####....++++....                                ",
"                                ....@@@@....####$$$$%%%%########$$$$$$$$%%%%$$$$####....++++....                                ",
"                                ....@@@@....####$$$$%%%%########$$$$$$$$%%%%$$$$####....++++....                                ",
"                                ....@@@@....####$$$$%%%%########$$$$$$$$%%%%$$$$####....++++....                                ",
"                                ....@@@@....$$$$$$$$%%%%####$$$$####$$$$%%%%$$$$$$$$....@@@@....                                ",
"                                ....@@@@....$$$$$$$$%%%%####$$$$####$$$$%%%%$$$$$$$$....@@@@....                                ",
"                                ....@@@@....$$$$$$$$%%%%####$$$$####$$$$%%%%$$$$$$$$....@@@@....                                ",
"                                ....@@@@....$$$$$$$$%%%%####$$$$####$$$$%%%%$$$$$$$$....@@@@....                                ",
"                                ....@@@@....$$$$....%%%%$$$$$$$$$$$$$$$$%%%%....$$$$....@@@@....                                ",
"                                ....@@@@....$$$$....%%%%$$$$$$$$$$$$$$$$%%%%....$$$$....@@@@....                                ",
"                                ....@@@@....$$$$....%%%%$$$$$$$$$$$$$$$$%%%%....$$$$....@@@@....                                ",
"                                ....@@@@....$$$$....%%%%$$$$$$$$$$$$$$$$%%%%....$$$$....@@@@....                                ",
"                                ....@@@@++++....@@@@........................@@@@....@@@@++++....                                ",
"                                ....@@@@++++....@@@@........................@@@@....@@@@++++....                                ",
"                                ....@@@@++++....@@@@........................@@@@....@@@@++++....                                ",
"                                ....@@@@++++....@@@@........................@@@@....@@@@++++....                                ",
"                                    ....++++....@@@@....++++++++@@@@++++....++++....++++....                                    ",
"                                    ....++++....@@@@....++++++++@@@@++++....++++....++++....                                    ",
"                                    ....++++....@@@@....++++++++@@@@++++....++++....++++....                                    ",
"                                    ....++++....@@@@....++++++++@@@@++++....++++....++++....                                    ",
"                                &&&&****........++++........................++++........****&&&&                                ",
"                                &&&&****........++++........................++++........****&&&&                                ",
"                                &&&&****........++++........................++++........****&&&&                                ",
"                                &&&&****........++++........................++++........****&&&&                                ",
"                                &&&&************....************************....************&&&&                                ",
"                                &&&&************....************************....************&&&&                                ",
"                                &&&&************....************************....************&&&&                                ",
"                                &&&&************....************************....************&&&&                                ",
"                                &&&&********************************************************&&&&                                ",
"                                &&&&********************************************************&&&&                                ",
"                                &&&&********************************************************&&&&                                ",
"                                &&&&********************************************************&&&&                                ",
"                                &&&&********************************************************&&&&                                ",
"                                &&&&********************************************************&&&&                                ",
"                                &&&&********************************************************&&&&                                ",
"                                &&&&********************************************************&&&&                                ",
"                                &&&&********************************************************&&&&                                ",
"                                &&&&********************************************************&&&&                                ",
"                                &&&&********************************************************&&&&                                ",
"                                &&&&********************************************************&&&&                                ",
"                                &&&&********************************************************&&&&                                ",
"                                &&&&********************************************************&&&&                                ",
"                                &&&&********************************************************&&&&                                ",
"                                &&&&********************************************************&&&&                                ",
"                                &&&&********************************************************&&&&                                ",
"                                &&&&********************************************************&&&&                                ",
"                                &&&&********************************************************&&&&                                ",
"                                &&&&********************************************************&&&&                                ",
"                                &&&&********************************************************&&&&                                ",
"                                &&&&********************************************************&&&&                                ",
"                                &&&&********************************************************&&&&                                ",
"                                &&&&********************************************************&&&&                                ",
"                                &&&&********************************************************&&&&                                ",
"                                &&&&********************************************************&&&&                                ",
"                                &&&&********************************************************&&&&                                ",
"                                &&&&********************************************************&&&&                                ",
"                                &&&&********************************************************&&&&                                ",
"                                &&&&********************************************************&&&&                                ",
"                                &&&&********************************************************&&&&                                ",
"                                &&&&********************************************************&&&&                                ",
"                                &&&&********************************************************&&&&                                ",
"                                &&&&********************************************************&&&&                                ",
"                                &&&&********************************************************&&&&                                ",
"                                &&&&********************************************************&&&&                                ",
"                                    &&&&************************************************&&&&                                    ",
"                                    &&&&************************************************&&&&                                    ",
"                                    &&&&************************************************&&&&                                    ",
"                                    &&&&************************************************&&&&                                    ",
"                                        &&&&&&&&&&&&&&&&&&&&&&&&&&&&&&&&&&&&&&&&&&&&&&&&                                        ",
"                                        &&&&&&&&&&&&&&&&&&&&&&&&&&&&&&&&&&&&&&&&&&&&&&&&                                        ",
"                                        &&&&&&&&&&&&&&&&&&&&&&&&&&&&&&&&&&&&&&&&&&&&&&&&                                        ",
"                                        &&&&&&&&&&&&&&&&&&&&&&&&&&&&&&&&&&&&&&&&&&&&&&&&                                        "};
