/* XPM */
static char * exit_1_128_xpm[] = {
"128 128 7 1",
" 	c None",
".	c #46413D",
"+	c #A39C97",
"@	c #817973",
"#	c #704012",
"$	c #462711",
"%	c #7E4C1C",
"                                                                                                                                ",
"                                                                                                                                ",
"                                                                                                                                ",
"                                                                                                                                ",
"                                                                                                                                ",
"                                                                                                                                ",
"                                                                                                                                ",
"                                                                                                                                ",
"                                                                                                                                ",
"                                                                                                                                ",
"                                                                                                                                ",
"                                                                                                                                ",
"                                                                                                                                ",
"                                                                                                                                ",
"                                                                                                                                ",
"                                                                                                                                ",
"                                                                                                                                ",
"                                                                                                                                ",
"                                                                                                                                ",
"                                                                                                                                ",
"                                                                                                                                ",
"                                                                                                                                ",
"                                                                                                                                ",
"                                                                                                                                ",
"                                                                                                                                ",
"                                                                                                                                ",
"                                                                                                                                ",
"                                                                                                                                ",
"                                                                                                                                ",
"                                                                                                                                ",
"                                                                                                                                ",
"                                                                                                                                ",
"                                                                                                                                ",
"                                                                                                                                ",
"                                                                                                                                ",
"                                                                                                                                ",
"                                                                                                                                ",
"                                                                                                                                ",
"                                                                                                                                ",
"                                                                                                                                ",
"                                                                                                                                ",
"                                                                                                                                ",
"                                                                                                                                ",
"                                                                                                                                ",
"                                                                                                                                ",
"                                                                                                                                ",
"                                                                                                                                ",
"                                                                                                                                ",
"                                                                                                                                ",
"                                                                                                                                ",
"                                                                                                                                ",
"                                                                                                                                ",
"                                                                                                                                ",
"                                                                                                                                ",
"                                                                                                                                ",
"                                                                                                                                ",
"                                                                                                                                ",
"                                                                                                                                ",
"                                                                                                                                ",
"                                                                                                                                ",
"                                                                                                                                ",
"                                                                                                                                ",
"                                                                                                                                ",
"                                                                                                                                ",
"                                                ....                        ....                                                ",
"                                                ....                        ....                                                ",
"                                                ....                        ....                                                ",
"                                                ....                        ....                                                ",
"                                        ........++++........................++++........                                        ",
"                                        ........++++........................++++........                                        ",
"                                        ........++++........................++++........                                        ",
"                                        ........++++........................++++........                                        ",
"                                    ....@@@@....++++....@@@@++++++++@@@@....@@@@....@@@@....                                    ",
"                                    ....@@@@....++++....@@@@++++++++@@@@....@@@@....@@@@....                                    ",
"                                    ....@@@@....++++....@@@@++++++++@@@@....@@@@....@@@@....                                    ",
"                                    ....@@@@....++++....@@@@++++++++@@@@....@@@@....@@@@....                                    ",
"                                ....@@@@++++....@@@@........................@@@@....@@@@++++....                                ",
"                                ....@@@@++++....@@@@........................@@@@....@@@@++++....                                ",
"                                ....@@@@++++....@@@@........................@@@@....@@@@++++....                                ",
"                                ....@@@@++++....@@@@........................@@@@....@@@@++++....                                ",
"                                ....++++....####....$$$$################$$$$....####....++++....                                ",
"                                ....++++....####....$$$$################$$$$....####....++++....                                ",
"                                ....++++....####....$$$$################$$$$....####....++++....                                ",
"                                ....++++....####....$$$$################$$$$....####....++++....                                ",
"                                ....++++....########$$$$####%%%%####%%%%$$$$########....++++....                                ",
"                                ....++++....########$$$$####%%%%####%%%%$$$$########....++++....                                ",
"                                ....++++....########$$$$####%%%%####%%%%$$$$########....++++....                                ",
"                                ....++++....########$$$$####%%%%####%%%%$$$$########....++++....                                ",
"                                ....@@@@....%%%%####$$$$########%%%%%%%%$$$$####%%%%....++++....                                ",
"                                ....@@@@....%%%%####$$$$########%%%%%%%%$$$$####%%%%....++++....                                ",
"                                ....@@@@....%%%%####$$$$########%%%%%%%%$$$$####%%%%....++++....                                ",
"                                ....@@@@....%%%%####$$$$########%%%%%%%%$$$$####%%%%....++++....                                ",
"                                ....++++....%%%%####$$$$####%%%%%%%%####$$$$%%%%####....++++....                                ",
"                                ....++++....%%%%####$$$$####%%%%%%%%####$$$$%%%%####....++++....                                ",
"                                ....++++....%%%%####$$$$####%%%%%%%%####$$$$%%%%####....++++....                                ",
"                                ....++++....%%%%####$$$$####%%%%%%%%####$$$$%%%%####....++++....                                ",
"                                ....++++....%%%%####$$$$%%%%%%%%%%%%####$$$$%%%%####....++++....                                ",
"                                ....++++....%%%%####$$$$%%%%%%%%%%%%####$$$$%%%%####....++++....                                ",
"                                ....++++....%%%%####$$$$%%%%%%%%%%%%####$$$$%%%%####....++++....                                ",
"                                ....++++....%%%%####$$$$%%%%%%%%%%%%####$$$$%%%%####....++++....                                ",
"                                ....++++....%%%%%%%%$$$$%%%%%%%%%%%%%%%%$$$$%%%%####....++++....                                ",
"                                ....++++....%%%%%%%%$$$$%%%%%%%%%%%%%%%%$$$$%%%%####....++++....                                ",
"                                ....++++....%%%%%%%%$$$$%%%%%%%%%%%%%%%%$$$$%%%%####....++++....                                ",
"                                ....++++....%%%%%%%%$$$$%%%%%%%%%%%%%%%%$$$$%%%%####....++++....                                ",
"                                ....++++....%%%%####$$$$%%%%####%%%%%%%%$$$$%%%%####....++++....                                ",
"                                ....++++....%%%%####$$$$%%%%####%%%%%%%%$$$$%%%%####....++++....                                ",
"                                ....++++....%%%%####$$$$%%%%####%%%%%%%%$$$$%%%%####....++++....                                ",
"                                ....++++....%%%%####$$$$%%%%####%%%%%%%%$$$$%%%%####....++++....                                ",
"                                ....@@@@....%%%%%%%%$$$$................$$$$%%%%%%%%....@@@@....                                ",
"                                ....@@@@....%%%%%%%%$$$$................$$$$%%%%%%%%....@@@@....                                ",
"                                ....@@@@....%%%%%%%%$$$$................$$$$%%%%%%%%....@@@@....                                ",
"                                ....@@@@....%%%%%%%%$$$$................$$$$%%%%%%%%....@@@@....                                ",
"                                ....@@@@....%%%%%%%%....@@@@++++++++@@@@....####%%%%....++++....                                ",
"                                ....@@@@....%%%%%%%%....@@@@++++++++@@@@....####%%%%....++++....                                ",
"                                ....@@@@....%%%%%%%%....@@@@++++++++@@@@....####%%%%....++++....                                ",
"                                ....@@@@....%%%%%%%%....@@@@++++++++@@@@....####%%%%....++++....                                ",
"                                ....++++@@@@........................................@@@@@@@@....                                ",
"                                ....++++@@@@........................................@@@@@@@@....                                ",
"                                ....++++@@@@........................................@@@@@@@@....                                ",
"                                ....++++@@@@........................................@@@@@@@@....                                ",
"                                    ....++++@@@@@@@@++++@@@@++++++++++++++++@@@@++++@@@@....                                    ",
"                                    ....++++@@@@@@@@++++@@@@++++++++++++++++@@@@++++@@@@....                                    ",
"                                    ....++++@@@@@@@@++++@@@@++++++++++++++++@@@@++++@@@@....                                    ",
"                                    ....++++@@@@@@@@++++@@@@++++++++++++++++@@@@++++@@@@....                                    ",
"                                        ................................................                                        ",
"                                        ................................................                                        ",
"                                        ................................................                                        ",
"                                        ................................................                                        "};
