/* XPM */
static char * player_walking_right_3_128_xpm[] = {
"128 128 12 1",
" 	c None",
".	c #2E222F",
"+	c #EA4F36",
"@	c #B33831",
"#	c #6E2727",
"$	c #541B24",
"%	c #9E4539",
"&	c #CD683D",
"*	c #E6904E",
"=	c #7A3045",
"-	c #7B0000",
";	c #B00000",
"                                                                                                                                ",
"                                                                                                                                ",
"                                                                                                                                ",
"                                                                                                                                ",
"                                                                                                                                ",
"                                                                                                                                ",
"                                                                                                                                ",
"                                                                                                                                ",
"                                                                                                                                ",
"                                                                                                                                ",
"                                                                                                                                ",
"                                                                                                                                ",
"                                                                                                                                ",
"                                                                                                                                ",
"                                                                                                                                ",
"                                                                                                                                ",
"                                                                                                                                ",
"                                                                                                                                ",
"                                                                                                                                ",
"                                                                                                                                ",
"                                                                                                                                ",
"                                                                                                                                ",
"                                                                                                                                ",
"                                                                                                                                ",
"                                                                                                                                ",
"                                                                                                                                ",
"                                                                                                                                ",
"                                                                                                                                ",
"                                                                                                                                ",
"                                                                                                                                ",
"                                                                                                                                ",
"                                                                                                                                ",
"                                                                                                                                ",
"                                                                                                                                ",
"                                                                                                                                ",
"                                                                                                                                ",
"                                                                                                                                ",
"                                                                                                                                ",
"                                                                                                                                ",
"                                                                                                                                ",
"                                                    ....                                                                        ",
"                                                    ....                                                                        ",
"                                                    ....                                                                        ",
"                                                    ....                                                                        ",
"                                                ....++++....    ....                                                            ",
"                                                ....++++....    ....                                                            ",
"                                                ....++++....    ....                                                            ",
"                                                ....++++....    ....                                                            ",
"                                                ....@@@@####....++++....    ....                                                ",
"                                                ....@@@@####....++++....    ....                                                ",
"                                                ....@@@@####....++++....    ....                                                ",
"                                                ....@@@@####....++++....    ....                                                ",
"                                        ....$$$$$$$$$$$$$$$$$$$$@@@@####....++++....                                            ",
"                                        ....$$$$$$$$$$$$$$$$$$$$@@@@####....++++....                                            ",
"                                        ....$$$$$$$$$$$$$$$$$$$$@@@@####....++++....                                            ",
"                                        ....$$$$$$$$$$$$$$$$$$$$@@@@####....++++....                                            ",
"                                    ....$$$$%%%%&&&&&&&&%%%%%%%%$$$$$$$$....@@@@####....                                        ",
"                                    ....$$$$%%%%&&&&&&&&%%%%%%%%$$$$$$$$....@@@@####....                                        ",
"                                    ....$$$$%%%%&&&&&&&&%%%%%%%%$$$$$$$$....@@@@####....                                        ",
"                                    ....$$$$%%%%&&&&&&&&%%%%%%%%$$$$$$$$....@@@@####....                                        ",
"                                ....$$$$%%%%&&&&********&&&&%%%%%%%%%%%%$$$$....@@@@####....                                    ",
"                                ....$$$$%%%%&&&&********&&&&%%%%%%%%%%%%$$$$....@@@@####....                                    ",
"                                ....$$$$%%%%&&&&********&&&&%%%%%%%%%%%%$$$$....@@@@####....                                    ",
"                                ....$$$$%%%%&&&&********&&&&%%%%%%%%%%%%$$$$....@@@@####....                                    ",
"                                ....$$$$====%%%%&&&&&&&&%%%%%%%%%%%%%%%%$$$$$$$$$$$$@@@@####....                                ",
"                                ....$$$$====%%%%&&&&&&&&%%%%%%%%%%%%%%%%$$$$$$$$$$$$@@@@####....                                ",
"                                ....$$$$====%%%%&&&&&&&&%%%%%%%%%%%%%%%%$$$$$$$$$$$$@@@@####....                                ",
"                                ....$$$$====%%%%&&&&&&&&%%%%%%%%%%%%%%%%$$$$$$$$$$$$@@@@####....                                ",
"                                ....$$$$================$$$$%%%%$$$$====%%%%----%%%%----....                                    ",
"                                ....$$$$================$$$$%%%%$$$$====%%%%----%%%%----....                                    ",
"                                ....$$$$================$$$$%%%%$$$$====%%%%----%%%%----....                                    ",
"                                ....$$$$================$$$$%%%%$$$$====%%%%----%%%%----....                                    ",
"                                ....$$$$$$$$========$$$$++++$$$$++++$$$$%%%%;;;;====;;;;....                                    ",
"                                ....$$$$$$$$========$$$$++++$$$$++++$$$$%%%%;;;;====;;;;....                                    ",
"                                ....$$$$$$$$========$$$$++++$$$$++++$$$$%%%%;;;;====;;;;....                                    ",
"                                ....$$$$$$$$========$$$$++++$$$$++++$$$$%%%%;;;;====;;;;....                                    ",
"                                ....$$$$++++$$$$====$$$$@@@@$$$$@@@@++++$$$$========....                                        ",
"                                ....$$$$++++$$$$====$$$$@@@@$$$$@@@@++++$$$$========....                                        ",
"                                ....$$$$++++$$$$====$$$$@@@@$$$$@@@@++++$$$$========....                                        ",
"                                ....$$$$++++$$$$====$$$$@@@@$$$$@@@@++++$$$$========....                                        ",
"                                    ....@@@@@@@@$$$$$$$$@@@@++++$$$$++++$$$$$$$$....                                            ",
"                                    ....@@@@@@@@$$$$$$$$@@@@++++$$$$++++$$$$$$$$....                                            ",
"                                    ....@@@@@@@@$$$$$$$$@@@@++++$$$$++++$$$$$$$$....                                            ",
"                                    ....@@@@@@@@$$$$$$$$@@@@++++$$$$++++$$$$$$$$....                                            ",
"                                        ....####++++........@@@@....@@@@........                                                ",
"                                        ....####++++........@@@@....@@@@........                                                ",
"                                        ....####++++........@@@@....@@@@........                                                ",
"                                        ....####++++........@@@@....@@@@........                                                ",
"                                            ................####++++@@@@....                                                    ",
"                                            ................####++++@@@@....                                                    ",
"                                            ................####++++@@@@....                                                    ",
"                                            ................####++++@@@@....                                                    ",
"                                                            ............                                                        ",
"                                                            ............                                                        ",
"                                                            ............                                                        ",
"                                                            ............                                                        ",
"                                                                                                                                ",
"                                                                                                                                ",
"                                                                                                                                ",
"                                                                                                                                ",
"                                                                                                                                ",
"                                                                                                                                ",
"                                                                                                                                ",
"                                                                                                                                ",
"                                                                                                                                ",
"                                                                                                                                ",
"                                                                                                                                ",
"                                                                                                                                ",
"                                                                                                                                ",
"                                                                                                                                ",
"                                                                                                                                ",
"                                                                                                                                ",
"                                                                                                                                ",
"                                                                                                                                ",
"                                                                                                                                ",
"                                                                                                                                ",
"                                                                                                                                ",
"                                                                                                                                ",
"                                                                                                                                ",
"                                                                                                                                ",
"                                                                                                                                ",
"                                                                                                                                ",
"                                                                                                                                ",
"                                                                                                                                ",
"                                                                                                                                ",
"                                                                                                                                ",
"                                                                                                                                ",
"                                                                                                                                "};
