/* XPM */
static char * player_up_128_xpm[] = {
"128 128 10 1",
" 	c None",
".	c #2E222F",
"+	c #CD683D",
"@	c #B33831",
"#	c #541B24",
"$	c #7A3045",
"%	c #9E4539",
"&	c #EA4F36",
"*	c #6E2727",
"=	c #E6904E",
"                                                                                                                                ",
"                                                                                                                                ",
"                                                                                                                                ",
"                                                                                                                                ",
"                                                                                                                                ",
"                                                                                                                                ",
"                                                                                                                                ",
"                                                                                                                                ",
"                                                                                                                                ",
"                                                                                                                                ",
"                                                                                                                                ",
"                                                                                                                                ",
"                                                                                                                                ",
"                                                                                                                                ",
"                                                                                                                                ",
"                                                                                                                                ",
"                                                                                                                                ",
"                                                                                                                                ",
"                                                                                                                                ",
"                                                                                                                                ",
"                                                                                                                                ",
"                                                                                                                                ",
"                                                                                                                                ",
"                                                                                                                                ",
"                                                                                                                                ",
"                                                                                                                                ",
"                                                                                                                                ",
"                                                                                                                                ",
"                                                                                                                                ",
"                                                                                                                                ",
"                                                                                                                                ",
"                                                                                                                                ",
"                                                        ................                                                        ",
"                                                        ................                                                        ",
"                                                        ................                                                        ",
"                                                        ................                                                        ",
"                                            ............++++++++++++++++............                                            ",
"                                            ............++++++++++++++++............                                            ",
"                                            ............++++++++++++++++............                                            ",
"                                            ............++++++++++++++++............                                            ",
"                                        ....@@@@@@@@####$$$$%%%%%%%%$$$$####@@@@@@@@....                                        ",
"                                        ....@@@@@@@@####$$$$%%%%%%%%$$$$####@@@@@@@@....                                        ",
"                                        ....@@@@@@@@####$$$$%%%%%%%%$$$$####@@@@@@@@....                                        ",
"                                        ....@@@@@@@@####$$$$%%%%%%%%$$$$####@@@@@@@@....                                        ",
"                                    ....@@@@........########################........@@@@....                                    ",
"                                    ....@@@@........########################........@@@@....                                    ",
"                                    ....@@@@........########################........@@@@....                                    ",
"                                    ....@@@@........########################........@@@@....                                    ",
"                                    ....@@@@........####$$$$%%%%%%%%$$$$####........@@@@....                                    ",
"                                    ....@@@@........####$$$$%%%%%%%%$$$$####........@@@@....                                    ",
"                                    ....@@@@........####$$$$%%%%%%%%$$$$####........@@@@....                                    ",
"                                    ....@@@@........####$$$$%%%%%%%%$$$$####........@@@@....                                    ",
"                                    ....&&&&....####$$$$%%%%++++++++%%%%$$$$####....&&&&....                                    ",
"                                    ....&&&&....####$$$$%%%%++++++++%%%%$$$$####....&&&&....                                    ",
"                                    ....&&&&....####$$$$%%%%++++++++%%%%$$$$####....&&&&....                                    ",
"                                    ....&&&&....####$$$$%%%%++++++++%%%%$$$$####....&&&&....                                    ",
"                                ....&&&&****....####$$$$++++========++++%%%%####....****&&&&....                                ",
"                                ....&&&&****....####$$$$++++========++++%%%%####....****&&&&....                                ",
"                                ....&&&&****....####$$$$++++========++++%%%%####....****&&&&....                                ",
"                                ....&&&&****....####$$$$++++========++++%%%%####....****&&&&....                                ",
"                                    ........&&&&####%%%%++++========++++$$$$####&&&&........                                    ",
"                                    ........&&&&####%%%%++++========++++$$$$####&&&&........                                    ",
"                                    ........&&&&####%%%%++++========++++$$$$####&&&&........                                    ",
"                                    ........&&&&####%%%%++++========++++$$$$####&&&&........                                    ",
"                                    ....@@@@....####$$$$%%%%++++++++%%%%$$$$####....@@@@....                                    ",
"                                    ....@@@@....####$$$$%%%%++++++++%%%%$$$$####....@@@@....                                    ",
"                                    ....@@@@....####$$$$%%%%++++++++%%%%$$$$####....@@@@....                                    ",
"                                    ....@@@@....####$$$$%%%%++++++++%%%%$$$$####....@@@@....                                    ",
"                                    ....&&&&....&&&&$$$$%%%%%%%%%%%%%%%%$$$$&&&&....&&&&....                                    ",
"                                    ....&&&&....&&&&$$$$%%%%%%%%%%%%%%%%$$$$&&&&....&&&&....                                    ",
"                                    ....&&&&....&&&&$$$$%%%%%%%%%%%%%%%%$$$$&&&&....&&&&....                                    ",
"                                    ....&&&&....&&&&$$$$%%%%%%%%%%%%%%%%$$$$&&&&....&&&&....                                    ",
"                                ....@@@@****....@@@@####$$$$%%%%%%%%$$$$####@@@@....****@@@@....                                ",
"                                ....@@@@****....@@@@####$$$$%%%%%%%%$$$$####@@@@....****@@@@....                                ",
"                                ....@@@@****....@@@@####$$$$%%%%%%%%$$$$####@@@@....****@@@@....                                ",
"                                ....@@@@****....@@@@####$$$$%%%%%%%%$$$$####@@@@....****@@@@....                                ",
"                                    ........&&&&........################........&&&&........                                    ",
"                                    ........&&&&........################........&&&&........                                    ",
"                                    ........&&&&........################........&&&&........                                    ",
"                                    ........&&&&........################........&&&&........                                    ",
"                                        ....@@@@....    ................    ....@@@@....                                        ",
"                                        ....@@@@....    ................    ....@@@@....                                        ",
"                                        ....@@@@....    ................    ....@@@@....                                        ",
"                                        ....@@@@....    ................    ....@@@@....                                        ",
"                                    ....&&&&****....                        ....****&&&&....                                    ",
"                                    ....&&&&****....                        ....****&&&&....                                    ",
"                                    ....&&&&****....                        ....****&&&&....                                    ",
"                                    ....&&&&****....                        ....****&&&&....                                    ",
"                                        ........                                ........                                        ",
"                                        ........                                ........                                        ",
"                                        ........                                ........                                        ",
"                                        ........                                ........                                        ",
"                                                                                                                                ",
"                                                                                                                                ",
"                                                                                                                                ",
"                                                                                                                                ",
"                                                                                                                                ",
"                                                                                                                                ",
"                                                                                                                                ",
"                                                                                                                                ",
"                                                                                                                                ",
"                                                                                                                                ",
"                                                                                                                                ",
"                                                                                                                                ",
"                                                                                                                                ",
"                                                                                                                                ",
"                                                                                                                                ",
"                                                                                                                                ",
"                                                                                                                                ",
"                                                                                                                                ",
"                                                                                                                                ",
"                                                                                                                                ",
"                                                                                                                                ",
"                                                                                                                                ",
"                                                                                                                                ",
"                                                                                                                                ",
"                                                                                                                                ",
"                                                                                                                                ",
"                                                                                                                                ",
"                                                                                                                                ",
"                                                                                                                                ",
"                                                                                                                                ",
"                                                                                                                                ",
"                                                                                                                                ",
"                                                                                                                                ",
"                                                                                                                                ",
"                                                                                                                                ",
"                                                                                                                                "};
