/* XPM */
static char * player_walking_up_2_128_xpm[] = {
"128 128 11 1",
" 	c None",
".	c #2E222F",
"+	c #CD683D",
"@	c #EA4F36",
"#	c #541B24",
"$	c #7A3045",
"%	c #9E4539",
"&	c #B33831",
"*	c #6E2727",
"=	c #45293F",
"-	c #E6904E",
"                                                                                                                                ",
"                                                                                                                                ",
"                                                                                                                                ",
"                                                                                                                                ",
"                                                                                                                                ",
"                                                                                                                                ",
"                                                                                                                                ",
"                                                                                                                                ",
"                                                                                                                                ",
"                                                                                                                                ",
"                                                                                                                                ",
"                                                                                                                                ",
"                                                                                                                                ",
"                                                                                                                                ",
"                                                                                                                                ",
"                                                                                                                                ",
"                                                                                                                                ",
"                                                                                                                                ",
"                                                                                                                                ",
"                                                                                                                                ",
"                                                                                                                                ",
"                                                                                                                                ",
"                                                                                                                                ",
"                                                                                                                                ",
"                                                                                                                                ",
"                                                                                                                                ",
"                                                                                                                                ",
"                                                                                                                                ",
"                                                                                                                                ",
"                                                                                                                                ",
"                                                                                                                                ",
"                                                                                                                                ",
"                                                                                                                                ",
"                                                                                                                                ",
"                                                                                                                                ",
"                                                                                                                                ",
"                                                        ................                                                        ",
"                                                        ................                                                        ",
"                                                        ................                                                        ",
"                                                        ................                                                        ",
"                                            ............++++++++++++++++............                                            ",
"                                            ............++++++++++++++++............                                            ",
"                                            ............++++++++++++++++............                                            ",
"                                            ............++++++++++++++++............                                            ",
"                                        ....@@@@@@@@####$$$$%%%%%%%%$$$$####....@@@@....                                        ",
"                                        ....@@@@@@@@####$$$$%%%%%%%%$$$$####....@@@@....                                        ",
"                                        ....@@@@@@@@####$$$$%%%%%%%%$$$$####....@@@@....                                        ",
"                                        ....@@@@@@@@####$$$$%%%%%%%%$$$$####....@@@@....                                        ",
"                                        ....&&&&....########################@@@@&&&&....                                        ",
"                                        ....&&&&....########################@@@@&&&&....                                        ",
"                                        ....&&&&....########################@@@@&&&&....                                        ",
"                                        ....&&&&....########################@@@@&&&&....                                        ",
"                                    ....&&&&****====####%%%%++++++++%%%%####====****@@@@....                                    ",
"                                    ....&&&&****====####%%%%++++++++%%%%####====****@@@@....                                    ",
"                                    ....&&&&****====####%%%%++++++++%%%%####====****@@@@....                                    ",
"                                    ....&&&&****====####%%%%++++++++%%%%####====****@@@@....                                    ",
"                                        ........####$$$$++++--------++++$$$$####........                                        ",
"                                        ........####$$$$++++--------++++$$$$####........                                        ",
"                                        ........####$$$$++++--------++++$$$$####........                                        ",
"                                        ........####$$$$++++--------++++$$$$####........                                        ",
"                                        ....@@@@@@@@$$$$++++--------++++%%%%####....                                            ",
"                                        ....@@@@@@@@$$$$++++--------++++%%%%####....                                            ",
"                                        ....@@@@@@@@$$$$++++--------++++%%%%####....                                            ",
"                                        ....@@@@@@@@$$$$++++--------++++%%%%####....                                            ",
"                                        ....&&&&====%%%%++++++++++++++++$$$$####@@@@....                                        ",
"                                        ....&&&&====%%%%++++++++++++++++$$$$####@@@@....                                        ",
"                                        ....&&&&====%%%%++++++++++++++++$$$$####@@@@....                                        ",
"                                        ....&&&&====%%%%++++++++++++++++$$$$####@@@@....                                        ",
"                                    ....&&&&****====$$$$%%%%++++++++%%%%$$$$@@@@&&&&....                                        ",
"                                    ....&&&&****====$$$$%%%%++++++++%%%%$$$$@@@@&&&&....                                        ",
"                                    ....&&&&****====$$$$%%%%++++++++%%%%$$$$@@@@&&&&....                                        ",
"                                    ....&&&&****====$$$$%%%%++++++++%%%%$$$$@@@@&&&&....                                        ",
"                                        ............$$$$%%%%%%%%%%%%%%%%$$$$....****@@@@....                                    ",
"                                        ............$$$$%%%%%%%%%%%%%%%%$$$$....****@@@@....                                    ",
"                                        ............$$$$%%%%%%%%%%%%%%%%$$$$....****@@@@....                                    ",
"                                        ............$$$$%%%%%%%%%%%%%%%%$$$$....****@@@@....                                    ",
"                                            ....@@@@####$$$$%%%%%%%%$$$$####@@@@........                                        ",
"                                            ....@@@@####$$$$%%%%%%%%$$$$####@@@@........                                        ",
"                                            ....@@@@####$$$$%%%%%%%%$$$$####@@@@........                                        ",
"                                            ....@@@@####$$$$%%%%%%%%$$$$####@@@@........                                        ",
"                                        ....&&&&........################....&&&&....                                            ",
"                                        ....&&&&........################....&&&&....                                            ",
"                                        ....&&&&........################....&&&&....                                            ",
"                                        ....&&&&........################....&&&&....                                            ",
"                                            ........    ....................&&&&&&&&....                                        ",
"                                            ........    ....................&&&&&&&&....                                        ",
"                                            ........    ....................&&&&&&&&....                                        ",
"                                            ........    ....................&&&&&&&&....                                        ",
"                                                                            ........                                            ",
"                                                                            ........                                            ",
"                                                                            ........                                            ",
"                                                                            ........                                            ",
"                                                                                                                                ",
"                                                                                                                                ",
"                                                                                                                                ",
"                                                                                                                                ",
"                                                                                                                                ",
"                                                                                                                                ",
"                                                                                                                                ",
"                                                                                                                                ",
"                                                                                                                                ",
"                                                                                                                                ",
"                                                                                                                                ",
"                                                                                                                                ",
"                                                                                                                                ",
"                                                                                                                                ",
"                                                                                                                                ",
"                                                                                                                                ",
"                                                                                                                                ",
"                                                                                                                                ",
"                                                                                                                                ",
"                                                                                                                                ",
"                                                                                                                                ",
"                                                                                                                                ",
"                                                                                                                                ",
"                                                                                                                                ",
"                                                                                                                                ",
"                                                                                                                                ",
"                                                                                                                                ",
"                                                                                                                                ",
"                                                                                                                                ",
"                                                                                                                                ",
"                                                                                                                                ",
"                                                                                                                                ",
"                                                                                                                                ",
"                                                                                                                                ",
"                                                                                                                                ",
"                                                                                                                                "};
