/* XPM */
static char * wall_right_corner_128_xpm[] = {
"128 128 6 1",
" 	c None",
".	c #252538",
"+	c #606473",
"@	c #48495C",
"#	c #393A49",
"$	c #313243",
"                                                                                                            ....................",
"                                                                                                            ....................",
"                                                                                                            ....................",
"                                                                                                            ....................",
"                                                                                                            ....++++++++++++....",
"                                                                                                            ....++++++++++++....",
"                                                                                                            ....++++++++++++....",
"                                                                                                            ....++++++++++++....",
"                                                                                                            ........++++++++....",
"                                                                                                            ........++++++++....",
"                                                                                                            ........++++++++....",
"                                                                                                            ........++++++++....",
"                                                                                                            ....@@@@....++++....",
"                                                                                                            ....@@@@....++++....",
"                                                                                                            ....@@@@....++++....",
"                                                                                                            ....@@@@....++++....",
"                                                                                                            ....++++@@@@++++....",
"                                                                                                            ....++++@@@@++++....",
"                                                                                                            ....++++@@@@++++....",
"                                                                                                            ....++++@@@@++++....",
"                                                                                                            ....++++++++++++....",
"                                                                                                            ....++++++++++++....",
"                                                                                                            ....++++++++++++....",
"                                                                                                            ....++++++++++++....",
"                                                                                                            ....++++++++++++....",
"                                                                                                            ....++++++++++++....",
"                                                                                                            ....++++++++++++....",
"                                                                                                            ....++++++++++++....",
"                                                                                                            ....++++++++++++....",
"                                                                                                            ....++++++++++++....",
"                                                                                                            ....++++++++++++....",
"                                                                                                            ....++++++++++++....",
"                                                                                                            ....++++++++++++....",
"                                                                                                            ....++++++++++++....",
"                                                                                                            ....++++++++++++....",
"                                                                                                            ....++++++++++++....",
"                                                                                                            ....++++++++@@@@....",
"                                                                                                            ....++++++++@@@@....",
"                                                                                                            ....++++++++@@@@....",
"                                                                                                            ....++++++++@@@@....",
"                                                                                                            ....++++++++@@@@....",
"                                                                                                            ....++++++++@@@@....",
"                                                                                                            ....++++++++@@@@....",
"                                                                                                            ....++++++++@@@@....",
"                                                                                                            ....++++++++@@@@....",
"                                                                                                            ....++++++++@@@@....",
"                                                                                                            ....++++++++@@@@....",
"                                                                                                            ....++++++++@@@@....",
"                                                                                                            ....++++++++........",
"                                                                                                            ....++++++++........",
"                                                                                                            ....++++++++........",
"                                                                                                            ....++++++++........",
"                                                                                                            ....@@@@++++++++....",
"                                                                                                            ....@@@@++++++++....",
"                                                                                                            ....@@@@++++++++....",
"                                                                                                            ....@@@@++++++++....",
"                                                                                                            ....++++++++++++....",
"                                                                                                            ....++++++++++++....",
"                                                                                                            ....++++++++++++....",
"                                                                                                            ....++++++++++++....",
"                                                                                                            ....++++++++++++....",
"                                                                                                            ....++++++++++++....",
"                                                                                                            ....++++++++++++....",
"                                                                                                            ....++++++++++++....",
"                                                                                                            ....................",
"                                                                                                            ....................",
"                                                                                                            ....................",
"                                                                                                            ....................",
"                                                                                                            ....############....",
"                                                                                                            ....############....",
"                                                                                                            ....############....",
"                                                                                                            ....############....",
"                                                                                                            ....############....",
"                                                                                                            ....############....",
"                                                                                                            ....############....",
"                                                                                                            ....############....",
"                                                                                                            ....############....",
"                                                                                                            ....############....",
"                                                                                                            ....############....",
"                                                                                                            ....############....",
"                                                                                                            ....############....",
"                                                                                                            ....############....",
"                                                                                                            ....############....",
"                                                                                                            ....############....",
"                                                                                                            ....########$$$$....",
"                                                                                                            ....########$$$$....",
"                                                                                                            ....########$$$$....",
"                                                                                                            ....########$$$$....",
"                                                                                                            ....########$$$$....",
"                                                                                                            ....########$$$$....",
"                                                                                                            ....########$$$$....",
"                                                                                                            ....########$$$$....",
"                                                                                                            ....####$$$$####....",
"                                                                                                            ....####$$$$####....",
"                                                                                                            ....####$$$$####....",
"                                                                                                            ....####$$$$####....",
"                                                                                                            ....$$$$$$$$####....",
"                                                                                                            ....$$$$$$$$####....",
"                                                                                                            ....$$$$$$$$####....",
"                                                                                                            ....$$$$$$$$####....",
"                                                                                                            ....$$$$########....",
"                                                                                                            ....$$$$########....",
"                                                                                                            ....$$$$########....",
"                                                                                                            ....$$$$########....",
"                                                                                                            ....############....",
"                                                                                                            ....############....",
"                                                                                                            ....############....",
"                                                                                                            ....############....",
"                                                                                                            ....########$$$$....",
"                                                                                                            ....########$$$$....",
"                                                                                                            ....########$$$$....",
"                                                                                                            ....########$$$$....",
"                                                                                                            ....############....",
"                                                                                                            ....############....",
"                                                                                                            ....############....",
"                                                                                                            ....############....",
"                                                                                                            ....############....",
"                                                                                                            ....############....",
"                                                                                                            ....############....",
"                                                                                                            ....############....",
"                                                                                                            ....############....",
"                                                                                                            ....############....",
"                                                                                                            ....############....",
"                                                                                                            ....############....",
"                                                                                                            ................    ",
"                                                                                                            ................    ",
"                                                                                                            ................    ",
"                                                                                                            ................    "};
