/* XPM */
static char * wall_bottom_corner_right_128_xpm[] = {
"128 128 4 1",
" 	c None",
".	c #252538",
"+	c #606473",
"@	c #48495C",
"                                                                                                            ....................",
"                                                                                                            ....................",
"                                                                                                            ....................",
"                                                                                                            ....................",
"                                                                                                            ....++++++++++++....",
"                                                                                                            ....++++++++++++....",
"                                                                                                            ....++++++++++++....",
"                                                                                                            ....++++++++++++....",
"                                                                                                            ....++++@@@@++++....",
"                                                                                                            ....++++@@@@++++....",
"                                                                                                            ....++++@@@@++++....",
"                                                                                                            ....++++@@@@++++....",
"                                                                                                            ....++++++++@@@@....",
"                                                                                                            ....++++++++@@@@....",
"                                                                                                            ....++++++++@@@@....",
"                                                                                                            ....++++++++@@@@....",
"                                                                                                            ....++++....@@@@....",
"                                                                                                            ....++++....@@@@....",
"                                                                                                            ....++++....@@@@....",
"                                                                                                            ....++++....@@@@....",
"                                                                                                            ....++++....@@@@....",
"                                                                                                            ....++++....@@@@....",
"                                                                                                            ....++++....@@@@....",
"                                                                                                            ....++++....@@@@....",
"                                                                                                            ....++++++++........",
"                                                                                                            ....++++++++........",
"                                                                                                            ....++++++++........",
"                                                                                                            ....++++++++........",
"                                                                                                            ....++++++++@@@@....",
"                                                                                                            ....++++++++@@@@....",
"                                                                                                            ....++++++++@@@@....",
"                                                                                                            ....++++++++@@@@....",
"                                                                                                            ....++++++++++++....",
"                                                                                                            ....++++++++++++....",
"                                                                                                            ....++++++++++++....",
"                                                                                                            ....++++++++++++....",
"                                                                                                            ....++++++++++++....",
"                                                                                                            ....++++++++++++....",
"                                                                                                            ....++++++++++++....",
"                                                                                                            ....++++++++++++....",
"                                                                                                            ....++++++++++++....",
"                                                                                                            ....++++++++++++....",
"                                                                                                            ....++++++++++++....",
"                                                                                                            ....++++++++++++....",
"                                                                                                            ....++++++++++++....",
"                                                                                                            ....++++++++++++....",
"                                                                                                            ....++++++++++++....",
"                                                                                                            ....++++++++++++....",
"                                                                ................................................@@@@@@@@++++....",
"                                                                ................................................@@@@@@@@++++....",
"                                                                ................................................@@@@@@@@++++....",
"                                                                ................................................@@@@@@@@++++....",
"                                                                ....++++++++++++++++++++++++++++@@@@@@@@++++@@@@@@@@++++++++....",
"                                                                ....++++++++++++++++++++++++++++@@@@@@@@++++@@@@@@@@++++++++....",
"                                                                ....++++++++++++++++++++++++++++@@@@@@@@++++@@@@@@@@++++++++....",
"                                                                ....++++++++++++++++++++++++++++@@@@@@@@++++@@@@@@@@++++++++....",
"                                                                ....++++@@@@++++++++++++++++++++++++++++@@@@@@@@++++++++++++....",
"                                                                ....++++@@@@++++++++++++++++++++++++++++@@@@@@@@++++++++++++....",
"                                                                ....++++@@@@++++++++++++++++++++++++++++@@@@@@@@++++++++++++....",
"                                                                ....++++@@@@++++++++++++++++++++++++++++@@@@@@@@++++++++++++....",
"                                                                ....@@@@@@@@@@@@@@@@@@@@++++++++++++++++++++++++++++++++++++....",
"                                                                ....@@@@@@@@@@@@@@@@@@@@++++++++++++++++++++++++++++++++++++....",
"                                                                ....@@@@@@@@@@@@@@@@@@@@++++++++++++++++++++++++++++++++++++....",
"                                                                ....@@@@@@@@@@@@@@@@@@@@++++++++++++++++++++++++++++++++++++....",
"                                                                ................................................................",
"                                                                ................................................................",
"                                                                ................................................................",
"                                                                ................................................................",
"                                                                ....++++++++++++++++++++++++....++++++++++++++++++++++++++++....",
"                                                                ....++++++++++++++++++++++++....++++++++++++++++++++++++++++....",
"                                                                ....++++++++++++++++++++++++....++++++++++++++++++++++++++++....",
"                                                                ....++++++++++++++++++++++++....++++++++++++++++++++++++++++....",
"                                                                ....++++++++++++++++++++++++....++++++++++++++++++++++++++++....",
"                                                                ....++++++++++++++++++++++++....++++++++++++++++++++++++++++....",
"                                                                ....++++++++++++++++++++++++....++++++++++++++++++++++++++++....",
"                                                                ....++++++++++++++++++++++++....++++++++++++++++++++++++++++....",
"                                                                ............................++++................................",
"                                                                ............................++++................................",
"                                                                ............................++++................................",
"                                                                ............................++++................................",
"                                                                ....@@@@@@@@@@@@....++++++++++++++++++++++++....++++++++++++....",
"                                                                ....@@@@@@@@@@@@....++++++++++++++++++++++++....++++++++++++....",
"                                                                ....@@@@@@@@@@@@....++++++++++++++++++++++++....++++++++++++....",
"                                                                ....@@@@@@@@@@@@....++++++++++++++++++++++++....++++++++++++....",
"                                                                ....++++++++@@@@....++++++++++++++++++++++++....++++++++++++....",
"                                                                ....++++++++@@@@....++++++++++++++++++++++++....++++++++++++....",
"                                                                ....++++++++@@@@....++++++++++++++++++++++++....++++++++++++....",
"                                                                ....++++++++@@@@....++++++++++++++++++++++++....++++++++++++....",
"                                                                ................++++........................@@@@................",
"                                                                ................++++........................@@@@................",
"                                                                ................++++........................@@@@................",
"                                                                ................++++........................@@@@................",
"                                                                ....++++++++++++++++++++++++....@@@@@@@@++++++++++++++++@@@@....",
"                                                                ....++++++++++++++++++++++++....@@@@@@@@++++++++++++++++@@@@....",
"                                                                ....++++++++++++++++++++++++....@@@@@@@@++++++++++++++++@@@@....",
"                                                                ....++++++++++++++++++++++++....@@@@@@@@++++++++++++++++@@@@....",
"                                                                ....++++++++++++++++++++++++....++++++++++++++++++++++++++++....",
"                                                                ....++++++++++++++++++++++++....++++++++++++++++++++++++++++....",
"                                                                ....++++++++++++++++++++++++....++++++++++++++++++++++++++++....",
"                                                                ....++++++++++++++++++++++++....++++++++++++++++++++++++++++....",
"                                                                ............................@@@@................................",
"                                                                ............................@@@@................................",
"                                                                ............................@@@@................................",
"                                                                ............................@@@@................................",
"                                                                ....++++....@@@@@@@@@@@@++++++++++++@@@@....++++++++++++++++....",
"                                                                ....++++....@@@@@@@@@@@@++++++++++++@@@@....++++++++++++++++....",
"                                                                ....++++....@@@@@@@@@@@@++++++++++++@@@@....++++++++++++++++....",
"                                                                ....++++....@@@@@@@@@@@@++++++++++++@@@@....++++++++++++++++....",
"                                                                ....++++....++++++++++++++++++++++++++++....++++++++++++++++....",
"                                                                ....++++....++++++++++++++++++++++++++++....++++++++++++++++....",
"                                                                ....++++....++++++++++++++++++++++++++++....++++++++++++++++....",
"                                                                ....++++....++++++++++++++++++++++++++++....++++++++++++++++....",
"                                                                ........++++............................++++....................",
"                                                                ........++++............................++++....................",
"                                                                ........++++............................++++....................",
"                                                                ........++++............................++++....................",
"                                                                ....++++++++++++++++++++++++....++++++++@@@@++++@@@@@@@@++++....",
"                                                                ....++++++++++++++++++++++++....++++++++@@@@++++@@@@@@@@++++....",
"                                                                ....++++++++++++++++++++++++....++++++++@@@@++++@@@@@@@@++++....",
"                                                                ....++++++++++++++++++++++++....++++++++@@@@++++@@@@@@@@++++....",
"                                                                ....++++++++++++++++++++++++....++++++++++++++++++++++++++++....",
"                                                                ....++++++++++++++++++++++++....++++++++++++++++++++++++++++....",
"                                                                ....++++++++++++++++++++++++....++++++++++++++++++++++++++++....",
"                                                                ....++++++++++++++++++++++++....++++++++++++++++++++++++++++....",
"                                                                ................................................................",
"                                                                ................................................................",
"                                                                ................................................................",
"                                                                ................................................................"};
